<mxfile host="app.diagrams.net" agent="Mozilla/5.0 (X11; Ubuntu; Linux x86_64; rv:134.0) Gecko/20100101 Firefox/134.0" version="26.0.9">
  <diagram name="Page-1" id="hm7Y5HxmSsDb3aKGGYmM">
    <mxGraphModel dx="1044" dy="2015" grid="1" gridSize="10" guides="1" tooltips="1" connect="1" arrows="1" fold="1" page="1" pageScale="1" pageWidth="850" pageHeight="1100" math="0" shadow="0">
      <root>
        <mxCell id="0" />
        <mxCell id="1" parent="0" />
        <mxCell id="TMj0XyWLxkUP78iXWE2O-1" value="START" style="ellipse;whiteSpace=wrap;html=1;" vertex="1" parent="1">
          <mxGeometry x="410" y="-40" width="120" height="80" as="geometry" />
        </mxCell>
        <mxCell id="TMj0XyWLxkUP78iXWE2O-41" value="" style="edgeStyle=orthogonalEdgeStyle;rounded=0;orthogonalLoop=1;jettySize=auto;html=1;" edge="1" parent="1" source="TMj0XyWLxkUP78iXWE2O-2" target="TMj0XyWLxkUP78iXWE2O-3">
          <mxGeometry relative="1" as="geometry" />
        </mxCell>
        <mxCell id="TMj0XyWLxkUP78iXWE2O-2" value="Read D1, D2" style="shape=parallelogram;perimeter=parallelogramPerimeter;whiteSpace=wrap;html=1;fixedSize=1;" vertex="1" parent="1">
          <mxGeometry x="400" y="150" width="120" height="60" as="geometry" />
        </mxCell>
        <mxCell id="TMj0XyWLxkUP78iXWE2O-48" style="edgeStyle=orthogonalEdgeStyle;rounded=0;orthogonalLoop=1;jettySize=auto;html=1;entryX=0;entryY=0.5;entryDx=0;entryDy=0;" edge="1" parent="1" source="TMj0XyWLxkUP78iXWE2O-3" target="TMj0XyWLxkUP78iXWE2O-46">
          <mxGeometry relative="1" as="geometry" />
        </mxCell>
        <mxCell id="TMj0XyWLxkUP78iXWE2O-49" value="FALSE" style="edgeLabel;html=1;align=center;verticalAlign=middle;resizable=0;points=[];" vertex="1" connectable="0" parent="TMj0XyWLxkUP78iXWE2O-48">
          <mxGeometry x="-0.2286" y="-2" relative="1" as="geometry">
            <mxPoint as="offset" />
          </mxGeometry>
        </mxCell>
        <mxCell id="TMj0XyWLxkUP78iXWE2O-56" value="" style="edgeStyle=orthogonalEdgeStyle;rounded=0;orthogonalLoop=1;jettySize=auto;html=1;" edge="1" parent="1" source="TMj0XyWLxkUP78iXWE2O-3" target="TMj0XyWLxkUP78iXWE2O-15">
          <mxGeometry relative="1" as="geometry" />
        </mxCell>
        <mxCell id="TMj0XyWLxkUP78iXWE2O-57" value="TRUE" style="edgeLabel;html=1;align=center;verticalAlign=middle;resizable=0;points=[];" vertex="1" connectable="0" parent="TMj0XyWLxkUP78iXWE2O-56">
          <mxGeometry x="-0.2903" y="-2" relative="1" as="geometry">
            <mxPoint as="offset" />
          </mxGeometry>
        </mxCell>
        <mxCell id="TMj0XyWLxkUP78iXWE2O-3" value="&lt;div&gt;D1 &amp;lt;= 6&lt;/div&gt;&lt;div&gt;AND&lt;/div&gt;&lt;div&gt;D2 &amp;lt;=6&lt;/div&gt;&lt;div&gt;AND&lt;/div&gt;&lt;div&gt;D1 &amp;gt; 0&lt;/div&gt;&lt;div&gt;AND&lt;/div&gt;&lt;div&gt;D2 &amp;gt;0&lt;br&gt;&lt;/div&gt;" style="rhombus;whiteSpace=wrap;html=1;" vertex="1" parent="1">
          <mxGeometry x="410" y="236" width="90" height="88" as="geometry" />
        </mxCell>
        <mxCell id="TMj0XyWLxkUP78iXWE2O-30" value="" style="edgeStyle=orthogonalEdgeStyle;rounded=0;orthogonalLoop=1;jettySize=auto;html=1;" edge="1" parent="1" source="TMj0XyWLxkUP78iXWE2O-4" target="TMj0XyWLxkUP78iXWE2O-5">
          <mxGeometry relative="1" as="geometry" />
        </mxCell>
        <mxCell id="TMj0XyWLxkUP78iXWE2O-4" value="somma = D1+D2" style="rounded=0;whiteSpace=wrap;html=1;" vertex="1" parent="1">
          <mxGeometry x="390" y="460" width="120" height="60" as="geometry" />
        </mxCell>
        <mxCell id="TMj0XyWLxkUP78iXWE2O-7" value="" style="edgeStyle=orthogonalEdgeStyle;rounded=0;orthogonalLoop=1;jettySize=auto;html=1;" edge="1" parent="1" source="TMj0XyWLxkUP78iXWE2O-5">
          <mxGeometry relative="1" as="geometry">
            <mxPoint x="310" y="620" as="targetPoint" />
          </mxGeometry>
        </mxCell>
        <mxCell id="TMj0XyWLxkUP78iXWE2O-8" value="TRUE" style="edgeLabel;html=1;align=center;verticalAlign=middle;resizable=0;points=[];" vertex="1" connectable="0" parent="TMj0XyWLxkUP78iXWE2O-7">
          <mxGeometry x="-0.7818" y="-1" relative="1" as="geometry">
            <mxPoint as="offset" />
          </mxGeometry>
        </mxCell>
        <mxCell id="TMj0XyWLxkUP78iXWE2O-10" value="" style="edgeStyle=orthogonalEdgeStyle;rounded=0;orthogonalLoop=1;jettySize=auto;html=1;" edge="1" parent="1" source="TMj0XyWLxkUP78iXWE2O-5" target="TMj0XyWLxkUP78iXWE2O-9">
          <mxGeometry relative="1" as="geometry" />
        </mxCell>
        <mxCell id="TMj0XyWLxkUP78iXWE2O-11" value="FALSE" style="edgeLabel;html=1;align=center;verticalAlign=middle;resizable=0;points=[];" vertex="1" connectable="0" parent="TMj0XyWLxkUP78iXWE2O-10">
          <mxGeometry x="-0.3538" relative="1" as="geometry">
            <mxPoint as="offset" />
          </mxGeometry>
        </mxCell>
        <mxCell id="TMj0XyWLxkUP78iXWE2O-5" value="&lt;div&gt;somma &amp;gt;8&lt;/div&gt;&lt;div&gt;AND&lt;/div&gt;&lt;div&gt;D1%2==0&lt;/div&gt;&lt;div&gt;AND&lt;/div&gt;&lt;div&gt;D2%2==0&lt;br&gt;&lt;/div&gt;" style="rhombus;whiteSpace=wrap;html=1;" vertex="1" parent="1">
          <mxGeometry x="420" y="580" width="80" height="80" as="geometry" />
        </mxCell>
        <mxCell id="TMj0XyWLxkUP78iXWE2O-23" value="" style="edgeStyle=orthogonalEdgeStyle;rounded=0;orthogonalLoop=1;jettySize=auto;html=1;" edge="1" parent="1" source="TMj0XyWLxkUP78iXWE2O-9" target="TMj0XyWLxkUP78iXWE2O-19">
          <mxGeometry relative="1" as="geometry" />
        </mxCell>
        <mxCell id="TMj0XyWLxkUP78iXWE2O-24" value="TRUE" style="edgeLabel;html=1;align=center;verticalAlign=middle;resizable=0;points=[];" vertex="1" connectable="0" parent="TMj0XyWLxkUP78iXWE2O-23">
          <mxGeometry x="0.0526" y="2" relative="1" as="geometry">
            <mxPoint as="offset" />
          </mxGeometry>
        </mxCell>
        <mxCell id="TMj0XyWLxkUP78iXWE2O-28" value="" style="edgeStyle=orthogonalEdgeStyle;rounded=0;orthogonalLoop=1;jettySize=auto;html=1;" edge="1" parent="1" source="TMj0XyWLxkUP78iXWE2O-9" target="TMj0XyWLxkUP78iXWE2O-27">
          <mxGeometry relative="1" as="geometry" />
        </mxCell>
        <mxCell id="TMj0XyWLxkUP78iXWE2O-29" value="FALSE" style="edgeLabel;html=1;align=center;verticalAlign=middle;resizable=0;points=[];" vertex="1" connectable="0" parent="TMj0XyWLxkUP78iXWE2O-28">
          <mxGeometry x="-0.3333" y="2" relative="1" as="geometry">
            <mxPoint as="offset" />
          </mxGeometry>
        </mxCell>
        <mxCell id="TMj0XyWLxkUP78iXWE2O-9" value="&lt;div&gt;somma==7&lt;/div&gt;&lt;div&gt;OR &lt;br&gt;&lt;/div&gt;&lt;div&gt;D1 ==6&lt;/div&gt;&lt;div&gt;OR&lt;/div&gt;&lt;div&gt;D2==6&lt;br&gt;&lt;/div&gt;" style="rhombus;whiteSpace=wrap;html=1;" vertex="1" parent="1">
          <mxGeometry x="425" y="720" width="80" height="80" as="geometry" />
        </mxCell>
        <mxCell id="TMj0XyWLxkUP78iXWE2O-17" value="" style="edgeStyle=orthogonalEdgeStyle;rounded=0;orthogonalLoop=1;jettySize=auto;html=1;" edge="1" parent="1" source="TMj0XyWLxkUP78iXWE2O-15" target="TMj0XyWLxkUP78iXWE2O-4">
          <mxGeometry relative="1" as="geometry" />
        </mxCell>
        <mxCell id="TMj0XyWLxkUP78iXWE2O-18" value="FALSE" style="edgeLabel;html=1;align=center;verticalAlign=middle;resizable=0;points=[];" vertex="1" connectable="0" parent="TMj0XyWLxkUP78iXWE2O-17">
          <mxGeometry x="-0.3" y="-2" relative="1" as="geometry">
            <mxPoint as="offset" />
          </mxGeometry>
        </mxCell>
        <mxCell id="TMj0XyWLxkUP78iXWE2O-32" value="" style="edgeStyle=orthogonalEdgeStyle;rounded=0;orthogonalLoop=1;jettySize=auto;html=1;" edge="1" parent="1" source="TMj0XyWLxkUP78iXWE2O-15" target="TMj0XyWLxkUP78iXWE2O-31">
          <mxGeometry relative="1" as="geometry" />
        </mxCell>
        <mxCell id="TMj0XyWLxkUP78iXWE2O-33" value="TRUE" style="edgeLabel;html=1;align=center;verticalAlign=middle;resizable=0;points=[];" vertex="1" connectable="0" parent="TMj0XyWLxkUP78iXWE2O-32">
          <mxGeometry x="-0.1667" y="4" relative="1" as="geometry">
            <mxPoint x="-2" y="-3" as="offset" />
          </mxGeometry>
        </mxCell>
        <mxCell id="TMj0XyWLxkUP78iXWE2O-15" value="&lt;div&gt;&amp;nbsp;&lt;/div&gt;&lt;div&gt;&lt;br&gt;&lt;/div&gt;&lt;div&gt;Punteggio &amp;gt;= 100&lt;/div&gt;&lt;div&gt;&lt;br&gt;&lt;/div&gt;" style="rhombus;whiteSpace=wrap;html=1;" vertex="1" parent="1">
          <mxGeometry x="420" y="350" width="80" height="80" as="geometry" />
        </mxCell>
        <mxCell id="TMj0XyWLxkUP78iXWE2O-42" value="" style="edgeStyle=orthogonalEdgeStyle;rounded=0;orthogonalLoop=1;jettySize=auto;html=1;" edge="1" parent="1" source="TMj0XyWLxkUP78iXWE2O-16" target="TMj0XyWLxkUP78iXWE2O-2">
          <mxGeometry relative="1" as="geometry" />
        </mxCell>
        <mxCell id="TMj0XyWLxkUP78iXWE2O-16" value="Punteggio = 0" style="rounded=0;whiteSpace=wrap;html=1;" vertex="1" parent="1">
          <mxGeometry x="400" y="60" width="120" height="60" as="geometry" />
        </mxCell>
        <mxCell id="TMj0XyWLxkUP78iXWE2O-36" style="edgeStyle=orthogonalEdgeStyle;rounded=0;orthogonalLoop=1;jettySize=auto;html=1;" edge="1" parent="1" source="TMj0XyWLxkUP78iXWE2O-19" target="TMj0XyWLxkUP78iXWE2O-37">
          <mxGeometry relative="1" as="geometry">
            <mxPoint x="220" y="380" as="targetPoint" />
            <Array as="points">
              <mxPoint x="91" y="760" />
            </Array>
          </mxGeometry>
        </mxCell>
        <mxCell id="TMj0XyWLxkUP78iXWE2O-19" value="Punteggio += 10" style="rounded=0;whiteSpace=wrap;html=1;" vertex="1" parent="1">
          <mxGeometry x="210" y="730" width="120" height="60" as="geometry" />
        </mxCell>
        <mxCell id="TMj0XyWLxkUP78iXWE2O-35" style="edgeStyle=orthogonalEdgeStyle;rounded=0;orthogonalLoop=1;jettySize=auto;html=1;" edge="1" parent="1" source="TMj0XyWLxkUP78iXWE2O-20">
          <mxGeometry relative="1" as="geometry">
            <mxPoint x="240" y="410" as="targetPoint" />
          </mxGeometry>
        </mxCell>
        <mxCell id="TMj0XyWLxkUP78iXWE2O-20" value="Punteggio += 100" style="rounded=0;whiteSpace=wrap;html=1;" vertex="1" parent="1">
          <mxGeometry x="180" y="590" width="120" height="60" as="geometry" />
        </mxCell>
        <mxCell id="TMj0XyWLxkUP78iXWE2O-21" style="edgeStyle=orthogonalEdgeStyle;rounded=0;orthogonalLoop=1;jettySize=auto;html=1;exitX=0.5;exitY=1;exitDx=0;exitDy=0;" edge="1" parent="1" source="TMj0XyWLxkUP78iXWE2O-19" target="TMj0XyWLxkUP78iXWE2O-19">
          <mxGeometry relative="1" as="geometry" />
        </mxCell>
        <mxCell id="TMj0XyWLxkUP78iXWE2O-53" style="edgeStyle=orthogonalEdgeStyle;rounded=0;orthogonalLoop=1;jettySize=auto;html=1;entryX=0;entryY=1;entryDx=0;entryDy=0;" edge="1" parent="1" source="TMj0XyWLxkUP78iXWE2O-27" target="TMj0XyWLxkUP78iXWE2O-54">
          <mxGeometry relative="1" as="geometry">
            <mxPoint x="810" y="460" as="targetPoint" />
          </mxGeometry>
        </mxCell>
        <mxCell id="TMj0XyWLxkUP78iXWE2O-27" value="Write &quot;Hai perso&quot;" style="shape=parallelogram;perimeter=parallelogramPerimeter;whiteSpace=wrap;html=1;fixedSize=1;" vertex="1" parent="1">
          <mxGeometry x="570" y="730" width="120" height="60" as="geometry" />
        </mxCell>
        <mxCell id="TMj0XyWLxkUP78iXWE2O-51" style="edgeStyle=orthogonalEdgeStyle;rounded=0;orthogonalLoop=1;jettySize=auto;html=1;" edge="1" parent="1" source="TMj0XyWLxkUP78iXWE2O-31">
          <mxGeometry relative="1" as="geometry">
            <mxPoint x="790" y="400" as="targetPoint" />
          </mxGeometry>
        </mxCell>
        <mxCell id="TMj0XyWLxkUP78iXWE2O-31" value="Write &quot;Hai Vinto&quot;" style="shape=parallelogram;perimeter=parallelogramPerimeter;whiteSpace=wrap;html=1;fixedSize=1;" vertex="1" parent="1">
          <mxGeometry x="600" y="370" width="120" height="60" as="geometry" />
        </mxCell>
        <mxCell id="TMj0XyWLxkUP78iXWE2O-34" value="END" style="ellipse;whiteSpace=wrap;html=1;" vertex="1" parent="1">
          <mxGeometry x="870" y="360" width="120" height="80" as="geometry" />
        </mxCell>
        <mxCell id="TMj0XyWLxkUP78iXWE2O-37" value="" style="ellipse;whiteSpace=wrap;html=1;aspect=fixed;" vertex="1" parent="1">
          <mxGeometry x="225" y="380" width="30" height="30" as="geometry" />
        </mxCell>
        <mxCell id="TMj0XyWLxkUP78iXWE2O-40" style="edgeStyle=orthogonalEdgeStyle;rounded=0;orthogonalLoop=1;jettySize=auto;html=1;entryX=0.175;entryY=0.6;entryDx=0;entryDy=0;entryPerimeter=0;" edge="1" parent="1" source="TMj0XyWLxkUP78iXWE2O-37" target="TMj0XyWLxkUP78iXWE2O-15">
          <mxGeometry relative="1" as="geometry" />
        </mxCell>
        <mxCell id="TMj0XyWLxkUP78iXWE2O-45" style="edgeStyle=orthogonalEdgeStyle;rounded=0;orthogonalLoop=1;jettySize=auto;html=1;exitX=0.5;exitY=1;exitDx=0;exitDy=0;entryX=0.583;entryY=-0.067;entryDx=0;entryDy=0;entryPerimeter=0;" edge="1" parent="1" source="TMj0XyWLxkUP78iXWE2O-1" target="TMj0XyWLxkUP78iXWE2O-16">
          <mxGeometry relative="1" as="geometry" />
        </mxCell>
        <mxCell id="TMj0XyWLxkUP78iXWE2O-52" style="edgeStyle=orthogonalEdgeStyle;rounded=0;orthogonalLoop=1;jettySize=auto;html=1;" edge="1" parent="1" source="TMj0XyWLxkUP78iXWE2O-46" target="TMj0XyWLxkUP78iXWE2O-2">
          <mxGeometry relative="1" as="geometry">
            <mxPoint x="770" y="180" as="targetPoint" />
            <Array as="points">
              <mxPoint x="771" y="280" />
              <mxPoint x="771" y="180" />
            </Array>
          </mxGeometry>
        </mxCell>
        <mxCell id="TMj0XyWLxkUP78iXWE2O-46" value="Write &quot;errore&quot;" style="shape=parallelogram;perimeter=parallelogramPerimeter;whiteSpace=wrap;html=1;fixedSize=1;" vertex="1" parent="1">
          <mxGeometry x="630" y="250" width="120" height="60" as="geometry" />
        </mxCell>
        <mxCell id="TMj0XyWLxkUP78iXWE2O-55" value="" style="edgeStyle=orthogonalEdgeStyle;rounded=0;orthogonalLoop=1;jettySize=auto;html=1;" edge="1" parent="1" source="TMj0XyWLxkUP78iXWE2O-54" target="TMj0XyWLxkUP78iXWE2O-34">
          <mxGeometry relative="1" as="geometry" />
        </mxCell>
        <mxCell id="TMj0XyWLxkUP78iXWE2O-54" value="" style="ellipse;whiteSpace=wrap;html=1;aspect=fixed;" vertex="1" parent="1">
          <mxGeometry x="800" y="375" width="30" height="30" as="geometry" />
        </mxCell>
      </root>
    </mxGraphModel>
  </diagram>
</mxfile>
